<svg width="100" height="100" viewBox="0 0 100 100" fill="none" xmlns="http://www.w3.org/2000/svg">
<path d="M72.8753 49.5963C72.8753 51.7856 71.1003 53.5604 68.9113 53.5604H31.0307C28.8409 53.5604 27.0667 51.7856 27.0667 49.5963V24.9299C27.0667 22.7406 28.8411 20.9658 31.0307 20.9658H68.9113C71.1005 20.9658 72.8753 22.7406 72.8753 24.9299V49.5963Z" fill="#90C8EC" style="fill:#90C8EC;fill:color(display-p3 0.5647 0.7843 0.9255);fill-opacity:1;"/>
<path d="M60.9019 98.4135H67.4933V67.786C67.4933 63.8823 64.3288 60.7183 60.4255 60.7183H39.5165C35.6128 60.7183 32.4485 63.8827 32.4485 67.786V98.4131H55.7188" fill="#90C8EC" style="fill:#90C8EC;fill:color(display-p3 0.5647 0.7843 0.9255);fill-opacity:1;"/>
<path d="M40.1407 37.0428C42.2694 37.0428 43.995 35.3172 43.995 33.1885C43.995 31.0599 42.2694 29.3342 40.1407 29.3342C38.012 29.3342 36.2864 31.0599 36.2864 33.1885C36.2864 35.3172 38.012 37.0428 40.1407 37.0428Z" fill="#CAE9F7" style="fill:#CAE9F7;fill:color(display-p3 0.7922 0.9137 0.9686);fill-opacity:1;"/>
<path d="M59.8016 37.0427C61.9302 37.0427 63.6557 35.3171 63.6557 33.1886C63.6557 31.06 61.9302 29.3345 59.8016 29.3345C57.6731 29.3345 55.9475 31.06 55.9475 33.1886C55.9475 35.3171 57.6731 37.0427 59.8016 37.0427Z" fill="#CAE9F7" style="fill:#CAE9F7;fill:color(display-p3 0.7922 0.9137 0.9686);fill-opacity:1;"/>
<path d="M49.8601 86.6029C54.4217 86.6029 58.1196 82.905 58.1196 78.3433C58.1196 73.7817 54.4217 70.0837 49.8601 70.0837C45.2984 70.0837 41.6005 73.7817 41.6005 78.3433C41.6005 82.905 45.2984 86.6029 49.8601 86.6029Z" fill="#578CAD" style="fill:#578CAD;fill:color(display-p3 0.3412 0.5490 0.6784);fill-opacity:1;"/>
<path d="M49.9701 14.1406C53.4365 14.1406 56.2466 11.3304 56.2466 7.86398C56.2466 4.39752 53.4365 1.5874 49.9701 1.5874C46.5036 1.5874 43.6935 4.39752 43.6935 7.86398C43.6935 11.3304 46.5036 14.1406 49.9701 14.1406Z" fill="#578CAD" style="fill:#578CAD;fill:color(display-p3 0.3412 0.5490 0.6784);fill-opacity:1;"/>
<path d="M73.6458 79.5662H68.3738C68.0706 79.5662 67.7767 79.6033 67.4933 79.6677V98.4137H77.6103V83.5304C77.6105 81.341 75.8351 79.5662 73.6458 79.5662Z" fill="#578CAD" style="fill:#578CAD;fill:color(display-p3 0.3412 0.5490 0.6784);fill-opacity:1;"/>
<path d="M26.2951 79.5662H31.5674C31.8707 79.5662 32.1647 79.6033 32.4485 79.6677V98.4137H22.3311V83.5304C22.3311 81.341 24.1059 79.5662 26.2951 79.5662Z" fill="#578CAD" style="fill:#578CAD;fill:color(display-p3 0.3412 0.5490 0.6784);fill-opacity:1;"/>
<path d="M27.1352 27.5244C21.8712 27.6596 17.6448 31.9666 17.6448 37.2635C17.6448 42.56 21.8715 46.867 27.1352 47.0024V27.5244Z" fill="#578CAD" style="fill:#578CAD;fill:color(display-p3 0.3412 0.5490 0.6784);fill-opacity:1;"/>
<g opacity="0.2">
<path d="M31.9324 49.5963V24.9299C31.9324 22.7406 33.7068 20.9658 35.8965 20.9658H31.0305C28.8406 20.9658 27.0664 22.7406 27.0664 24.9299V49.5962C27.0664 51.7854 28.8408 53.5602 31.0305 53.5602H35.8965C33.7068 53.5606 31.9324 51.7856 31.9324 49.5963Z" fill="#231F20" style="fill:#231F20;fill:color(display-p3 0.1373 0.1216 0.1255);fill-opacity:1;"/>
</g>
<g opacity="0.2">
<path d="M44.3825 60.7183H39.5165C35.6128 60.7183 32.4485 63.8827 32.4485 67.786V98.4131H37.3145V67.786C37.3145 63.8827 40.479 60.7183 44.3825 60.7183Z" fill="#231F20" style="fill:#231F20;fill:color(display-p3 0.1373 0.1216 0.1255);fill-opacity:1;"/>
</g>
<g opacity="0.2">
<path d="M46.4678 78.3437C46.4678 74.6294 48.9204 71.4882 52.2938 70.4495C51.5245 70.2126 50.7077 70.0845 49.8608 70.0845C45.2997 70.0845 41.6018 73.7823 41.6018 78.3435C41.6018 82.9046 45.2999 86.6023 49.8608 86.6023C50.7077 86.6023 51.5245 86.4743 52.2938 86.2376C48.9202 85.1992 46.4678 82.0579 46.4678 78.3437Z" fill="#231F20" style="fill:#231F20;fill:color(display-p3 0.1373 0.1216 0.1255);fill-opacity:1;"/>
</g>
<g opacity="0.1">
<path d="M48.5605 7.86349C48.5605 5.25977 50.146 3.02637 52.404 2.07598C51.6558 1.76094 50.8337 1.58691 49.971 1.58691C46.5042 1.58691 43.6945 4.39747 43.6945 7.86368C43.6945 11.3303 46.5042 14.1405 49.971 14.1405C50.8337 14.1405 51.6558 13.966 52.404 13.6512C50.1458 12.7006 48.5605 10.4672 48.5605 7.86349Z" fill="#231F20" style="fill:#231F20;fill:color(display-p3 0.1373 0.1216 0.1255);fill-opacity:1;"/>
</g>
<g opacity="0.2">
<path d="M31.1614 79.5659H26.2954C24.1061 79.5659 22.3313 81.3407 22.3313 83.53V98.4134H27.1973V83.53C27.1971 81.3407 28.9719 79.5659 31.1614 79.5659Z" fill="#231F20" style="fill:#231F20;fill:color(display-p3 0.1373 0.1216 0.1255);fill-opacity:1;"/>
</g>
<g opacity="0.2">
<path d="M22.5106 37.2633C22.5106 33.4248 24.3215 30.0115 27.135 27.8269V27.5242C21.8709 27.6593 17.6445 31.9664 17.6445 37.2633C17.6445 42.5597 21.8713 46.8668 27.135 47.0021V46.6992C24.3217 44.5144 22.5106 41.1012 22.5106 37.2633Z" fill="#231F20" style="fill:#231F20;fill:color(display-p3 0.1373 0.1216 0.1255);fill-opacity:1;"/>
</g>
<path d="M72.865 27.5242C78.1291 27.6593 82.3554 31.9664 82.3554 37.2633C82.3554 42.5597 78.1287 46.8668 72.865 47.0021V27.5242Z" fill="#578CAD" style="fill:#578CAD;fill:color(display-p3 0.3412 0.5490 0.6784);fill-opacity:1;"/>
<path d="M68.9111 55.1474C71.972 55.1474 74.4619 52.6571 74.4619 49.5964V48.4401C76.832 48.0518 79.013 46.9239 80.7191 45.1766C82.7974 43.0485 83.942 40.238 83.942 37.2632C83.942 34.288 82.7974 31.4774 80.7191 29.3495C79.013 27.6024 76.8322 26.4745 74.4619 26.0862V24.9299C74.4619 21.8692 71.9716 19.3791 68.9111 19.3791H51.5577V15.566C55.1355 14.8299 57.8345 11.6561 57.8345 7.86349C57.8345 3.52774 54.3067 0 49.971 0C45.635 0 42.1077 3.52774 42.1077 7.86349C42.1077 11.6561 44.8065 14.8299 48.3843 15.566V19.3791H31.0309C27.97 19.3791 25.4801 21.8694 25.4801 24.9299V26.0946C23.1321 26.4915 20.9731 27.6165 19.2811 29.3493C17.203 31.4774 16.0582 34.288 16.0582 37.263C16.0582 40.238 17.2028 43.0485 19.2811 45.1765C20.9733 46.9093 23.1323 48.0341 25.4801 48.4311V49.5958C25.4801 52.6565 27.9704 55.1466 31.0309 55.1466H48.3843V59.131H39.5167C34.7444 59.131 30.862 63.0134 30.862 67.7855V77.9783H26.2956C23.2346 77.9783 20.7448 80.4685 20.7448 83.5293V98.4125C20.7448 99.2889 21.4549 99.9992 22.3315 99.9992H32.4489H55.7192C56.5958 99.9992 57.306 99.2889 57.306 98.4125C57.306 97.5361 56.5958 96.8258 55.7192 96.8258H34.0352V79.6666V67.7855C34.0352 64.7632 36.494 62.3044 39.5165 62.3044H60.4255C63.4478 62.3044 65.9066 64.7632 65.9066 67.7855V79.6668V96.826H60.9019C60.0253 96.826 59.3151 97.5363 59.3151 98.4127C59.3151 99.2891 60.0253 99.9994 60.9019 99.9994H67.4933H77.6103C78.4869 99.9994 79.197 99.2891 79.197 98.4127V83.5295C79.197 80.4687 76.7068 77.9785 73.6458 77.9785H69.08V67.7857C69.08 63.0134 65.1976 59.1312 60.4255 59.1312H51.5577V55.1468H68.9111V55.1474ZM45.2811 7.86349C45.2811 5.27735 47.385 3.17344 49.971 3.17344C52.5571 3.17344 54.661 5.27735 54.661 7.86349C54.661 10.4496 52.5571 12.5535 49.971 12.5535C47.3849 12.5535 45.2811 10.4496 45.2811 7.86349ZM23.9178 83.53C23.9178 82.2191 24.9844 81.1527 26.2952 81.1527H30.8616V96.8266H23.9178C23.9178 96.8268 23.9178 83.53 23.9178 83.53ZM73.6458 81.1527C74.957 81.1527 76.0234 82.2193 76.0234 83.53V96.8266H69.08V81.1527H73.6458ZM80.7687 37.2634C80.7687 41.1571 78.1054 44.3819 74.4619 45.2114V29.3151C78.1058 30.1444 80.7687 33.3694 80.7687 37.2634ZM19.2313 37.2634C19.2313 33.3905 21.8664 30.1801 25.4797 29.3295V45.1972C21.8662 44.3464 19.2313 41.1362 19.2313 37.2634ZM28.6532 49.5964V47.4624C28.6981 47.3145 28.7217 47.1597 28.7217 47.0022V27.5243C28.7217 27.3668 28.6981 27.212 28.6532 27.0641V24.9301C28.6532 23.6192 29.7198 22.5528 31.0305 22.5528H68.9111C70.222 22.5528 71.2884 23.6194 71.2884 24.9301V27.3497C71.282 27.4075 71.2781 27.4659 71.2781 27.5245V47.0024C71.2781 47.061 71.2822 47.1194 71.2884 47.1772V49.5968C71.2884 50.9077 70.2218 51.9741 68.9111 51.9741H31.0307C29.7198 51.9737 28.6532 50.9073 28.6532 49.5964Z" fill="#231F20" style="fill:#231F20;fill:color(display-p3 0.1373 0.1216 0.1255);fill-opacity:1;"/>
<path d="M45.5812 33.1889C45.5812 30.1889 43.1401 27.748 40.1397 27.748C37.1397 27.748 34.6991 30.1889 34.6991 33.1889C34.6991 36.1889 37.1397 38.6297 40.1397 38.6297C43.1401 38.6297 45.5812 36.1889 45.5812 33.1889ZM40.1395 35.4563C38.8893 35.4563 37.8723 34.4391 37.8723 33.1889C37.8723 31.9387 38.8893 30.9215 40.1395 30.9215C41.3901 30.9215 42.4075 31.9387 42.4075 33.1889C42.4075 34.4391 41.3903 35.4563 40.1395 35.4563Z" fill="#231F20" style="fill:#231F20;fill:color(display-p3 0.1373 0.1216 0.1255);fill-opacity:1;"/>
<path d="M59.8022 38.6297C62.8024 38.6297 65.2431 36.1889 65.2431 33.1889C65.2431 30.1889 62.8024 27.748 59.8022 27.748C56.802 27.748 54.3612 30.1889 54.3612 33.1889C54.3612 36.1889 56.802 38.6297 59.8022 38.6297ZM59.8022 30.9215C61.0524 30.9215 62.0696 31.9387 62.0696 33.1889C62.0696 34.4391 61.0524 35.4563 59.8022 35.4563C58.5518 35.4563 57.5346 34.4391 57.5346 33.1889C57.5346 31.9387 58.5518 30.9215 59.8022 30.9215Z" fill="#231F20" style="fill:#231F20;fill:color(display-p3 0.1373 0.1216 0.1255);fill-opacity:1;"/>
<path d="M56.7761 43.3301C56.9898 42.4802 56.4739 41.6181 55.6241 41.4045C54.7747 41.1906 53.9122 41.7066 53.6985 42.5564C53.2175 44.4705 51.5003 45.8074 49.5233 45.8074C47.5372 45.8074 45.8186 44.4631 45.3442 42.5381C45.1347 41.6873 44.2745 41.1672 43.4239 41.3771C42.5731 41.5867 42.0534 42.4467 42.263 43.2974C43.0876 46.6435 46.0733 48.9808 49.5233 48.9808C52.9573 48.9808 55.9402 46.6572 56.7761 43.3301Z" fill="#231F20" style="fill:#231F20;fill:color(display-p3 0.1373 0.1216 0.1255);fill-opacity:1;"/>
<path d="M49.8609 68.498C44.4321 68.498 40.0151 72.9147 40.0151 78.3438C40.0151 83.7727 44.4319 88.1893 49.8609 88.1893C55.2894 88.1893 59.7062 83.7727 59.7062 78.3438C59.7062 72.9148 55.2896 68.498 49.8609 68.498ZM49.8609 85.0159C46.1818 85.0159 43.1886 82.0229 43.1886 78.3438C43.1886 74.6647 46.1816 71.6715 49.8609 71.6715C53.5398 71.6715 56.5326 74.6645 56.5326 78.3438C56.5328 82.0227 53.5396 85.0159 49.8609 85.0159Z" fill="#231F20" style="fill:#231F20;fill:color(display-p3 0.1373 0.1216 0.1255);fill-opacity:1;"/>
</svg>
