<svg width="114" height="114" viewBox="0 0 114 114" fill="none" xmlns="http://www.w3.org/2000/svg">
<path d="M52.0435 71.8697H42.1304V101.609H52.0435V71.8697Z" fill="#51D1F5" style="fill:#51D1F5;fill:color(display-p3 0.3176 0.8196 0.9608);fill-opacity:1;"/>
<path d="M61.9565 71.8697V101.609H71.8696V96.6522V81.7825V71.8697H61.9565Z" fill="#51D1F5" style="fill:#51D1F5;fill:color(display-p3 0.3176 0.8196 0.9608);fill-opacity:1;"/>
<path d="M79.3044 47.0869H76.8262V32.2173H79.3044C83.4106 32.2173 86.7391 35.5457 86.7391 39.652C86.7391 43.7584 83.4106 47.0869 79.3044 47.0869Z" fill="#51D1F5" style="fill:#51D1F5;fill:color(display-p3 0.3176 0.8196 0.9608);fill-opacity:1;"/>
<path d="M34.6956 47.0869H37.1738V32.2173H34.6956C30.5894 32.2173 27.2609 35.5457 27.2609 39.652C27.2609 43.7584 30.5894 47.0869 34.6956 47.0869Z" fill="#51D1F5" style="fill:#51D1F5;fill:color(display-p3 0.3176 0.8196 0.9608);fill-opacity:1;"/>
<path d="M66.9132 22.3044H47.0872C41.6125 22.3044 37.1741 17.8661 37.1741 12.3913C37.1741 6.91658 41.6123 2.47815 47.0872 2.47815H66.9132C72.3878 2.47815 76.8263 6.91636 76.8263 12.3913C76.826 17.8659 72.3878 22.3044 66.9132 22.3044Z" fill="#7FA339" style="fill:#7FA339;fill:color(display-p3 0.4980 0.6392 0.2235);fill-opacity:1;"/>
<path d="M76.8263 32.2174H37.1741V71.8696H76.8263V32.2174Z" fill="#7FA339" style="fill:#7FA339;fill:color(display-p3 0.4980 0.6392 0.2235);fill-opacity:1;"/>
<path d="M57.0001 111.522H37.1741V106.596C37.1741 103.842 39.4071 101.609 42.1616 101.609H52.0126C54.767 101.609 57.0001 103.842 57.0001 106.596V111.522Z" fill="#7FA339" style="fill:#7FA339;fill:color(display-p3 0.4980 0.6392 0.2235);fill-opacity:1;"/>
<path d="M76.826 111.522H57.0001V106.596C57.0001 103.842 59.2331 101.609 61.9876 101.609H71.8385C74.593 101.609 76.826 103.842 76.826 106.596V111.522Z" fill="#7FA339" style="fill:#7FA339;fill:color(display-p3 0.4980 0.6392 0.2235);fill-opacity:1;"/>
<path d="M69.3913 12.3913C69.3913 11.0228 68.2816 9.91309 66.9132 9.91309H47.0872C45.7185 9.91309 44.609 11.0228 44.609 12.3913C44.609 13.7597 45.7185 14.8694 47.0872 14.8694H66.9132C68.2816 14.8696 69.3913 13.7597 69.3913 12.3913Z" fill="black" style="fill:black;fill-opacity:1;"/>
<path d="M73.929 87.8419C73.84 87.7054 73.736 87.5789 73.6218 87.4649C73.0471 86.89 72.1896 86.6248 71.3863 86.7885C71.2277 86.8179 71.0714 86.8675 70.9229 86.9294C70.7718 86.9913 70.6284 87.0684 70.4945 87.1574C70.3581 87.2467 70.2316 87.3507 70.1176 87.4647C70.0036 87.5787 69.8996 87.7052 69.8079 87.8417C69.7186 87.9755 69.6442 88.1189 69.5823 88.27C69.5204 88.419 69.4708 88.5749 69.4414 88.7334C69.4089 88.8919 69.3917 89.0556 69.3917 89.2166C69.3917 89.3773 69.4089 89.5412 69.4414 89.6997C69.4708 89.8582 69.5204 90.0146 69.5823 90.1628C69.6442 90.314 69.7213 90.4579 69.8103 90.5917C69.8996 90.7279 70.0036 90.8544 70.1176 90.9684C70.2316 91.0826 70.3581 91.1868 70.4945 91.2757C70.6284 91.365 70.7718 91.4418 70.9229 91.5037C71.0719 91.5656 71.2277 91.6152 71.3863 91.6448C71.5448 91.6771 71.7085 91.6945 71.8694 91.6945C72.0302 91.6945 72.1941 91.6771 72.3526 91.6448C72.5111 91.615 72.6674 91.5656 72.8157 91.5037C72.9669 91.4418 73.1108 91.365 73.2446 91.2757C73.3808 91.1866 73.5073 91.0826 73.6213 90.9684C73.7355 90.8544 73.8397 90.7279 73.9286 90.5917C74.0179 90.4579 74.0947 90.314 74.1566 90.1628C74.2185 90.0141 74.2681 89.8582 74.2977 89.6997C74.33 89.541 74.3474 89.3773 74.3474 89.2166C74.3474 89.0556 74.33 88.8917 74.2977 88.7334C74.2654 88.5751 74.2185 88.4186 74.1566 88.27C74.0949 88.1193 74.0183 87.9757 73.929 87.8419Z" fill="black" style="fill:black;fill-opacity:1;"/>
<path d="M101.609 59.4782H99.1306V52.0434C99.1306 51.4806 98.9393 50.9346 98.5875 50.4953L89.173 38.727C88.7045 33.6935 84.4582 29.7391 79.3046 29.7391H76.8265H64.4352V24.7825H66.9134C73.746 24.7825 79.3046 19.2237 79.3046 12.3913C79.3046 5.55884 73.7456 0 66.9131 0H47.0871C40.2545 0 34.6959 5.55884 34.6959 12.3913C34.6959 19.2237 40.2547 24.7825 47.0871 24.7825H49.5653V29.7391H37.174H34.6959C29.5418 29.7391 25.2958 33.6935 24.8275 38.727L15.413 50.4953C15.0616 50.9346 14.8699 51.4806 14.8699 52.0434V59.4782H12.3917C11.0231 59.4782 9.91357 60.5879 9.91357 61.9563V76.826C9.91357 78.1944 11.0231 79.3041 12.3917 79.3041H17.3483C18.717 79.3041 19.8265 78.1944 19.8265 76.826C19.8265 75.4575 18.717 74.3478 17.3483 74.3478H14.8701V64.4347H17.3483H19.8265V66.9129C19.8265 68.2813 20.936 69.391 22.3046 69.391C23.6733 69.391 24.7828 68.2813 24.7828 66.9129V61.9563C24.7828 60.5879 23.6733 59.4782 22.3046 59.4782H19.8265V52.9127L26.2672 44.8619C28.0169 47.6821 31.1401 49.5651 34.6961 49.5651V71.8694C34.6961 73.2379 35.8056 74.3476 37.1743 74.3476H39.6524V99.5652C36.7668 100.598 34.6959 103.359 34.6959 106.596V111.522C34.6959 112.89 35.8054 114 37.174 114H57H76.826C78.1945 114 79.3042 112.89 79.3042 111.522V106.596C79.3042 103.359 77.2337 100.598 74.3476 99.5652V96.652C74.3476 95.2835 73.2379 94.1738 71.8695 94.1738C70.501 94.1738 69.3913 95.2835 69.3913 96.652V99.1301H64.4347V74.3478H69.3913V81.7825C69.3913 83.151 70.501 84.2607 71.8695 84.2607C73.2379 84.2607 74.3476 83.151 74.3476 81.7825V74.3478H76.8258C78.1942 74.3478 79.304 73.2381 79.304 71.8696V49.5653C82.8598 49.5653 85.9832 47.6821 87.7328 44.8619L94.1736 52.9129V59.4784H91.6954C90.327 59.4784 89.2173 60.5881 89.2173 61.9565V66.9131C89.2173 68.2815 90.327 69.3913 91.6954 69.3913C93.0639 69.3913 94.1736 68.2815 94.1736 66.9131V64.4349H96.6518H99.1299V74.348H96.6518C95.2833 74.348 94.1736 75.4578 94.1736 76.8262C94.1736 78.1946 95.2833 79.3044 96.6518 79.3044H101.608C102.977 79.3044 104.086 78.1946 104.086 76.8262V61.9565C104.087 60.5881 102.977 59.4782 101.609 59.4782ZM34.6957 44.6087C31.9626 44.6087 29.7391 42.3853 29.7391 39.6522C29.7391 36.9191 31.9626 34.6956 34.6957 34.6956V44.6087ZM47.0869 19.826C42.9874 19.826 39.6522 16.4908 39.6522 12.3913C39.6522 8.29172 42.9874 4.95655 47.0869 4.95655H66.9129C71.0125 4.95655 74.3476 8.29172 74.3476 12.3913C74.3476 16.4908 71.0125 19.826 66.9129 19.826H61.9564H52.0433H47.0869ZM59.4782 24.7825V29.7391H54.5219V24.7825H59.4782ZM54.5219 109.043H39.6522V106.596C39.6522 105.213 40.7777 104.087 42.1615 104.087H52.0125C53.3961 104.087 54.5219 105.212 54.5219 106.596V109.043ZM44.6088 99.1303V74.3478H49.5653V99.1303H44.6088ZM71.8385 104.087C73.2221 104.087 74.3478 105.212 74.3478 106.596V109.043H59.4782V106.596C59.4782 105.213 60.6037 104.087 61.9875 104.087H71.8385ZM59.4782 99.5663C58.5553 99.8969 57.715 100.403 57 101.046C56.2849 100.403 55.445 99.8958 54.5219 99.5652V74.3478H59.4784V99.5663H59.4782ZM74.3478 47.0869V69.3913H71.8697H61.9566H52.0435H42.1304H39.6522V47.0869V34.6956H52.0435H61.9566H74.3478V47.0869ZM79.3044 44.6087V34.6956C82.0375 34.6956 84.2609 36.9191 84.2609 39.6522C84.2609 42.3853 82.0375 44.6087 79.3044 44.6087Z" fill="black" style="fill:black;fill-opacity:1;"/>
<path d="M54.5219 42.1304C54.5219 43.4988 55.6313 44.6085 57 44.6085H66.9131C68.2816 44.6085 69.3913 43.4988 69.3913 42.1304C69.3913 40.7619 68.2816 39.6522 66.9131 39.6522H57C55.6313 39.6522 54.5219 40.7619 54.5219 42.1304Z" fill="black" style="fill:black;fill-opacity:1;"/>
</svg>
