<svg width="81" height="28" viewBox="0 0 81 28" fill="none" xmlns="http://www.w3.org/2000/svg">
<g clip-path="url(#clip0_159_371)">
<path fill-rule="evenodd" clip-rule="evenodd" d="M55.2369 23.8342C51.582 24.1995 48.62 21.2623 48.62 17.274C48.62 13.2854 51.4135 10.1013 54.8596 10.1628C58.3051 10.2233 61.268 13.1605 61.4765 16.7229C61.6849 20.2848 58.8914 23.4686 55.2369 23.8342ZM35.0954 16.3583C35.3041 12.7961 38.2664 9.85934 41.7122 9.79814C45.158 9.73726 47.9515 12.9214 47.9515 16.9097C47.9515 20.8983 44.9895 23.8354 41.3347 23.4702C37.6801 23.1049 34.8869 19.9208 35.0954 16.3583ZM42.1405 20.1069C42.888 20.0183 44.0257 19.0124 44.1815 17.1672C44.3858 14.757 43.3049 12.6958 41.5181 12.7337C39.7303 12.7713 38.8483 14.1572 38.7407 16.3739C38.6322 18.5901 40.2452 20.3316 42.1405 20.1069ZM52.3901 17.5312C52.5462 19.3764 53.6839 20.3823 54.4313 20.4709C56.3263 20.6956 57.9393 18.9544 57.8314 16.7379C57.7232 14.5211 56.8416 13.1356 55.0538 13.0977C53.2673 13.0597 52.1861 15.121 52.3901 17.5312ZM0 4.55786L4.27037 3.4576L4.2599 12.181L11.4704 5.19406L15.1792 6.62581L9.9383 12.4666L13.4142 25.1881H9.64321L6.86179 15.4416L4.23486 18.0259L4.27037 25.1881L0 25.0349V4.55786ZM34.932 23.8061H31.1822L30.9367 18.0077L30.5883 13.884C30.5011 10.9928 27.9058 11.7268 27.1203 12.0758L27.3278 23.8061L23.7447 23.6815L23.1621 0.979462L26.8116 0L26.8941 9.18427C30.8628 7.91093 32.9878 7.92465 33.5214 13.7807L34.932 23.8061ZM75.3263 26.429L76.3853 23.9241H78.8454L79.7762 26.6728L77.5674 28L75.3263 26.429ZM61.4171 12.5963L60.8033 8.33549L63.9895 8.44706L63.9933 2.46379L66.842 3.65012L66.7922 8.96149L70.8868 9.23271V11.8116L66.8864 12.0363L67.2218 19.8854C67.2218 19.8854 67.23 20.4993 68.4823 20.4993C69.7342 20.4993 70.8868 19.8076 70.8868 19.8076V23.8106C70.9414 25.0272 69.2304 25.5423 69.2304 25.5423C63.7608 26.3767 64.1624 22.7307 64.1624 22.7307L63.9844 12.5963H61.4171ZM80.9397 3.70081L78.0265 22.5025L73.3916 2.24005L80.9397 3.70081ZM15.2724 11.9713L14.2724 9.32005C14.2724 9.32005 21.572 6.04189 22.441 11.9241L22.3357 24.5631L16.7944 24.5625C16.7944 24.5625 14.3622 24.6565 13.6141 21.9307C13.6141 21.9307 11.7438 14.9855 19.1345 13.6692L19.1538 11.977C19.1538 11.977 17.7525 10.4576 15.2724 11.9713ZM19.1265 22.1449L19.2274 16.4861C16.2074 16.0453 16.1509 20.1515 16.1509 20.1515C16.446 22.8047 19.1265 22.1449 19.1265 22.1449Z" fill="#6A0FF3" style="fill:#6A0FF3;fill:color(display-p3 0.4158 0.0577 0.9529);fill-opacity:1;"/>
</g>
<defs>
<clipPath id="clip0_159_371">
<rect width="81" height="28" fill="white" style="fill:white;fill-opacity:1;"/>
</clipPath>
</defs>
</svg>
