<svg width="79" height="79" viewBox="0 0 79 79" fill="none" xmlns="http://www.w3.org/2000/svg">
<path d="M4.33386 52.8927L0.283569 66.1138H3.47073L4.20178 63.6503H8.15271L8.86402 66.1138H12.3298L8.27985 52.8927H4.33386ZM5.00228 60.9908L6.20548 56.8788L7.39511 60.9908H5.00228Z" fill="#B7C6C7" style="fill:#B7C6C7;fill:color(display-p3 0.7191 0.7779 0.7798);fill-opacity:1;"/>
<path d="M19.9449 60.082C19.8971 60.0308 19.8483 59.9823 19.7987 59.937C19.8983 59.8993 19.9955 59.8592 20.0906 59.8154C20.4763 59.6383 20.8142 59.4009 21.0951 59.1118C21.379 58.8199 21.6021 58.4681 21.7579 58.066C21.9122 57.6688 21.9906 57.2124 21.9906 56.7103C21.9906 56.0181 21.8656 55.4195 21.62 54.9303C21.3716 54.4357 21.0121 54.0283 20.5519 53.7194C20.1054 53.4201 19.5623 53.2038 18.9374 53.0769C18.3369 52.955 17.6604 52.8927 16.9275 52.8927H12.793V66.1138H15.9638V60.9479H16.0579C16.4047 60.9479 16.6939 61.0241 16.9417 61.1815C17.1877 61.3374 17.3762 61.5673 17.5191 61.8857L19.4354 66.1138H23.1247L20.7963 61.3975C20.5143 60.8248 20.2356 60.3949 19.9449 60.082ZM18.5658 57.5457C18.4742 57.7203 18.347 57.8635 18.177 57.9833C17.9977 58.1092 17.7752 58.2058 17.5148 58.2706C17.2398 58.3394 16.926 58.3739 16.5816 58.3739H15.9638V55.5907H16.6606C17.3864 55.5907 17.9258 55.7046 18.2637 55.9296C18.5581 56.1255 18.7013 56.4557 18.7013 56.9396C18.7013 57.1735 18.6569 57.3719 18.5658 57.5457Z" fill="#B7C6C7" style="fill:#B7C6C7;fill:color(display-p3 0.7191 0.7779 0.7798);fill-opacity:1;"/>
<path d="M32.4147 54.4628C31.8808 53.9262 31.2075 53.5244 30.4135 53.2692C29.6395 53.0195 28.7285 52.8927 27.7062 52.8927H23.5127V66.1138H27.1631C28.341 66.1138 29.3713 65.9533 30.2252 65.637C31.0924 65.3164 31.8166 64.851 32.3774 64.2542C32.9371 63.6586 33.3544 62.9309 33.6167 62.0919C33.874 61.2704 34.0043 60.3465 34.0043 59.3457C34.0043 58.2548 33.8737 57.2979 33.6157 56.5014C33.3522 55.6855 32.9483 54.9998 32.4147 54.4628ZM29.8222 62.4977C29.2717 63.1093 28.473 63.4065 27.3806 63.4065H26.6832V55.6H27.5482C28.1595 55.6 28.6727 55.6864 29.0729 55.8571C29.4611 56.0222 29.7614 56.2554 29.991 56.5696C30.2255 56.8918 30.3956 57.296 30.4962 57.7703C30.602 58.2721 30.656 58.8535 30.656 59.4985C30.656 60.8742 30.3755 61.8833 29.8222 62.4977Z" fill="#B7C6C7" style="fill:#B7C6C7;fill:color(display-p3 0.7191 0.7779 0.7798);fill-opacity:1;"/>
<path d="M41.6423 61.3034C41.6423 61.7592 41.6003 62.1477 41.5167 62.4582C41.4389 62.7479 41.3244 62.9846 41.1757 63.1615C41.0331 63.3315 40.8587 63.4515 40.643 63.5284C40.4082 63.6123 40.1079 63.6546 39.75 63.6546C39.3713 63.6546 39.059 63.6061 38.8217 63.5102C38.5937 63.4176 38.4104 63.2852 38.261 63.1059C38.111 62.9254 38.0036 62.6989 37.9416 62.4316C37.8725 62.1366 37.8376 61.7895 37.8376 61.3988V52.8927H34.6671V61.542C34.6671 62.2567 34.7557 62.9127 34.9297 63.4917C35.1109 64.0931 35.4096 64.6131 35.8179 65.0362C36.2261 65.4589 36.7606 65.7861 37.4065 66.0073C38.0342 66.2236 38.7927 66.3332 39.6608 66.3332C40.4369 66.3332 41.1491 66.2236 41.7768 66.0073C42.4187 65.7873 42.972 65.4537 43.4216 65.0155C43.8715 64.5767 44.2206 64.0243 44.4591 63.3738C44.6936 62.735 44.8128 61.987 44.8128 61.1504V52.8927H41.6423V61.3034Z" fill="#B7C6C7" style="fill:#B7C6C7;fill:color(display-p3 0.7191 0.7779 0.7798);fill-opacity:1;"/>
<path d="M46.4341 55.5525H49.2793V63.4352H46.4341V66.1138H55.3349V63.4352H52.4896V55.5525H55.3349V52.8927H46.4341V55.5525Z" fill="#B7C6C7" style="fill:#B7C6C7;fill:color(display-p3 0.7191 0.7779 0.7798);fill-opacity:1;"/>
<path d="M64.1582 60.4261L60.6137 52.8927H57.025V66.1138H59.978V58.4372L63.5413 66.1138H67.1117V52.8927H64.1582V60.4261Z" fill="#B7C6C7" style="fill:#B7C6C7;fill:color(display-p3 0.7191 0.7779 0.7798);fill-opacity:1;"/>
<path d="M77.3762 54.457C76.4504 53.2797 75.0626 52.6829 73.2521 52.6829C72.4775 52.6829 71.7388 52.8202 71.0562 53.0908C70.364 53.3652 69.7523 53.7923 69.2379 54.3613C68.7281 54.9254 68.3232 55.6509 68.0353 56.5171C67.7505 57.3723 67.6061 58.3977 67.6061 59.5654C67.6061 61.7225 68.065 63.4006 68.9698 64.5542C69.8955 65.7348 71.2833 66.3332 73.0938 66.3332C73.8687 66.3332 74.6081 66.1959 75.2907 65.9252C75.9832 65.6506 76.5945 65.2232 77.1083 64.6551C77.6175 64.0913 78.0224 63.3661 78.3112 62.4992C78.5954 61.6444 78.7398 60.619 78.7398 59.4506C78.7398 57.2874 78.281 55.6071 77.3762 54.457ZM75.2894 61.3266C75.1987 61.8145 75.0571 62.2258 74.8685 62.5495C74.6895 62.8578 74.468 63.0837 74.1918 63.2395C73.9165 63.3948 73.5737 63.4735 73.1731 63.4735C72.3806 63.4735 71.8283 63.1784 71.4845 62.5721C71.1068 61.9058 70.9151 60.856 70.9151 59.4506C70.9151 58.7909 70.9627 58.1981 71.0571 57.6898C71.1478 57.2028 71.2904 56.7921 71.4817 56.4684C71.6638 56.1589 71.886 55.9324 72.1609 55.7759C72.4322 55.6213 72.7726 55.5429 73.1731 55.5429C73.9717 55.5429 74.5257 55.8373 74.8661 56.4428C75.241 57.1093 75.4311 58.1601 75.4311 59.5654C75.4311 60.2271 75.3836 60.8196 75.2894 61.3266Z" fill="#B7C6C7" style="fill:#B7C6C7;fill:color(display-p3 0.7191 0.7779 0.7798);fill-opacity:1;"/>
<path d="M74.1597 14.4236H74.7222V15.9027H75.1212V14.4236H75.6884V14.0564H74.1597V14.4236Z" fill="#B7C6C7" style="fill:#B7C6C7;fill:color(display-p3 0.7191 0.7779 0.7798);fill-opacity:1;"/>
<path d="M77.0768 14.0564L76.692 15.3148L76.2939 14.0564H75.7733V15.9027H76.1486V14.7233L76.5207 15.9027H76.8633L77.2163 14.7538V15.9027H77.5897V14.0564H77.0768Z" fill="#B7C6C7" style="fill:#B7C6C7;fill:color(display-p3 0.7191 0.7779 0.7798);fill-opacity:1;"/>
<path d="M58.7176 49.7845C53.6912 49.7845 49.3938 48.0897 45.6116 44.6233C43.2753 42.4826 41.349 39.8598 39.5768 37.1328C37.8048 39.8598 35.8783 42.4826 33.5422 44.6233C29.4784 48.3477 24.8192 50.0271 19.3009 49.7564C8.77759 49.7108 0.230469 41.4059 0.230469 31.2044C0.230469 20.9748 8.8245 12.6523 19.388 12.6523C25.1685 12.6523 30.0354 14.5653 34.2653 18.5002C36.2971 20.3903 38.0122 22.5829 39.5768 24.877C41.1414 22.5829 42.8568 20.3903 44.8883 18.5002C49.1182 14.5653 53.985 12.6523 59.7656 12.6523C70.3294 12.6523 78.9231 20.9748 78.9231 31.2044C78.9231 41.4059 70.3763 49.7108 59.8526 49.7564C59.4703 49.7752 59.0916 49.7845 58.7176 49.7845ZM43.4253 30.9569C45.5219 34.3585 47.5567 37.5247 50.0353 39.7959C52.8331 42.36 55.782 43.4148 59.594 43.2133L59.7656 43.2087C66.7185 43.2087 72.3754 37.8237 72.3754 31.2044C72.3754 24.5854 66.7185 19.2001 59.7656 19.2001C55.661 19.2001 52.3507 20.5011 49.3481 23.2942C47.1056 25.3806 45.254 28.0536 43.4253 30.9569ZM19.388 19.2001C12.435 19.2001 6.77821 24.5854 6.77821 31.2044C6.77821 37.8237 12.435 43.2087 19.388 43.2087L19.5599 43.2133C23.3722 43.4148 26.3205 42.36 29.1182 39.7959C31.5969 37.5247 33.632 34.3585 35.7283 30.9569C33.8996 28.0536 32.048 25.3806 29.8058 23.2942C26.8029 20.5011 23.4926 19.2001 19.388 19.2001Z" fill="#B7C6C7" style="fill:#B7C6C7;fill:color(display-p3 0.7191 0.7779 0.7798);fill-opacity:1;"/>
<path d="M60.6316 28.8248V25.2742H56.9359V28.8248H53.3855V32.5027H56.9359V36.0796H60.6316V32.5027H64.1823V28.8248H60.6316Z" fill="#B7C6C7" style="fill:#B7C6C7;fill:color(display-p3 0.7191 0.7779 0.7798);fill-opacity:1;"/>
<path d="M14.0715 28.7804H25.7416V32.5736H14.0715V28.7804Z" fill="#B7C6C7" style="fill:#B7C6C7;fill:color(display-p3 0.7191 0.7779 0.7798);fill-opacity:1;"/>
</svg>
